# xmcd CD database file
#
# Track frame offsets:
#	150
#	18957
#	40755
#	62158
#	85267
#	107871
#	128286
#	148756
#	174982
#	193940
#	216279
#	236653
#	255795
#	271443
#	290937
#
# Disc length: 4130 seconds
#
# Revision: 0
# Processed by: cddbd v1.5.1PL0 Copyright (c) Steve Scherf et al.
# Submitted via: CDex 1.51
#
DISCID=da10200f
DTITLE=Varios - Merengues Viga Vo. I
DYEAR=2005
DGENRE=Merengue
TTITLE0=Tony Medrano - Amor Libre
TTITLE1=Anibal Bravo - No Tengo Dinero  (1985)
TTITLE2=Dioni Fernandez - Yo Te Amo Mas  (1981)
TTITLE3=Juan Minalya - Toda La Vida
TTITLE4=Victor Irizarry - Abejita Colora (1982)
TTITLE5=Fernando Villalona - Maldita Suerte
TTITLE6=Sony Cristal - Pa' Goza'
TTITLE7=Nelson Cordero - Soy
TTITLE8=Tony Medrano - No Me Hablen De Ella 1988
TTITLE9=Cuco Valoy - El Africano
TTITLE10=Richie Ricardo - La Chica de Los Ojos Cafe (1988)
TTITLE11=Ponle Un Se Vende - Tomas Barrera
TTITLE12=Henry Castro - La Chinita  (1987)
TTITLE13=Carlos manuel (EL Zafiro) - Esta Es Tu Tierra
TTITLE14=Richie Ricardo -  El Pulpero
EXTD=YEAR: 2005
EXTT0=
EXTT1=
EXTT2=
EXTT3=
EXTT4=
EXTT5=
EXTT6=
EXTT7=
EXTT8=
EXTT9=
EXTT10=
EXTT11=
EXTT12=
EXTT13=
EXTT14=
PLAYORDER=
